<svg width="201" height="60" viewBox="0 0 201 60" fill="none" xmlns="http://www.w3.org/2000/svg">
<path d="M58.4923 50.0208C56.5355 50.0208 54.7488 49.5226 53.1323 48.5261C51.53 47.5296 50.2468 46.1963 49.2825 44.5261C48.3325 42.8419 47.8574 40.9822 47.8574 38.9472C47.8574 37.4033 48.1339 35.9647 48.6869 34.6314C49.24 33.284 49.9985 32.1051 50.9628 31.0945C51.9412 30.07 53.0757 29.27 54.366 28.6945C55.6563 28.1191 57.0318 27.8314 58.4923 27.8314C60.4492 27.8314 62.2287 28.3296 63.8311 29.3261C65.4476 30.3226 66.7309 31.663 67.6809 33.3472C68.6452 35.0314 69.1273 36.898 69.1273 38.9472C69.1273 40.477 68.8508 41.9085 68.2977 43.2419C67.7447 44.5753 66.979 45.7542 66.0006 46.7787C65.0363 47.7893 63.909 48.5822 62.6187 49.1577C61.3425 49.7332 59.9671 50.0208 58.4923 50.0208ZM58.4923 43.7051C59.3006 43.7051 60.0238 43.4875 60.6619 43.0524C61.3141 42.6174 61.8246 42.0419 62.1933 41.3261C62.562 40.5963 62.7463 39.8033 62.7463 38.9472C62.7463 38.063 62.5478 37.2559 62.1508 36.5261C61.7679 35.7963 61.2503 35.2208 60.5981 34.7998C59.96 34.3647 59.2581 34.1472 58.4923 34.1472C57.6982 34.1472 56.9751 34.3717 56.3228 34.8208C55.6847 35.2559 55.1742 35.8384 54.7914 36.5682C54.4227 37.298 54.2384 38.0911 54.2384 38.9472C54.2384 39.8454 54.4298 40.6524 54.8127 41.3682C55.2097 42.084 55.7273 42.6524 56.3654 43.0735C57.0176 43.4945 57.7266 43.7051 58.4923 43.7051ZM69.7833 49.4735L69.7621 28.4208H76.143L76.1643 29.7472C76.8732 29.1437 77.6815 28.6735 78.589 28.3366C79.4965 27.9998 80.4537 27.8314 81.4605 27.8314C82.2262 27.8314 83.006 27.9437 83.8002 28.1682L81.2903 34.5682C80.794 34.3437 80.2835 34.2314 79.7589 34.2314C79.0924 34.2314 78.4827 34.3927 77.9297 34.7156C77.3908 35.0243 76.9583 35.4524 76.6322 35.9998C76.3202 36.5332 76.1643 37.1296 76.1643 37.7893V49.4735H69.7833ZM90.6231 59.9998H84.2421V28.4208H90.6231V30.3998C91.2896 29.6559 92.0623 29.0524 92.9415 28.5893C93.8207 28.1121 94.8345 27.8735 95.9831 27.8735C97.5429 27.8735 98.9963 28.1612 100.343 28.7366C101.691 29.3121 102.875 30.1121 103.895 31.1366C104.931 32.1472 105.732 33.3191 106.3 34.6524C106.88 35.9858 107.172 37.4174 107.172 38.9472C107.172 40.477 106.88 41.9156 106.3 43.263C105.732 44.6103 104.931 45.7963 103.895 46.8208C102.875 47.8314 101.691 48.6243 100.343 49.1998C98.9963 49.7753 97.5429 50.063 95.9831 50.063C94.8345 50.063 93.8207 49.8243 92.9415 49.3472C92.0623 48.87 91.2896 48.2664 90.6231 47.5366V59.9998ZM95.898 33.9366C95.0331 33.9366 94.239 34.1682 93.5158 34.6314C92.8068 35.0805 92.2396 35.684 91.8142 36.4419C91.3888 37.1998 91.1761 38.0348 91.1761 38.9472C91.1761 39.8735 91.3888 40.7156 91.8142 41.4735C92.2396 42.2314 92.8068 42.8348 93.5158 43.284C94.239 43.7332 95.0331 43.9577 95.898 43.9577C96.7772 43.9577 97.5783 43.7332 98.3015 43.284C99.0247 42.8348 99.599 42.2314 100.024 41.4735C100.45 40.7156 100.662 39.8735 100.662 38.9472C100.662 38.0348 100.45 37.1998 100.024 36.4419C99.599 35.684 99.0247 35.0805 98.3015 34.6314C97.5783 34.1682 96.7772 33.9366 95.898 33.9366ZM127.335 36.0208V49.4735H120.954V37.7893C120.954 37.1296 120.792 36.5332 120.465 35.9998C120.139 35.4524 119.707 35.0243 119.168 34.7156C118.629 34.3927 118.027 34.2314 117.36 34.2314C116.693 34.2314 116.084 34.3927 115.531 34.7156C114.991 35.0243 114.56 35.4524 114.233 35.9998C113.922 36.5332 113.765 37.1296 113.765 37.7893V49.4735H107.384L107.363 17.8945H113.744L113.765 29.7472C114.475 29.1437 115.283 28.6735 116.19 28.3366C117.097 27.9998 118.054 27.8314 119.061 27.8314C120.593 27.8314 121.983 28.2033 123.23 28.9472C124.478 29.677 125.471 30.6595 126.208 31.8945C126.96 33.1296 127.335 34.5051 127.335 36.0208ZM129.031 49.4735V17.8945H135.412V49.4735H129.031ZM150.624 28.4208H157.43L145.774 59.9998H139.01L142.839 49.4735L135.182 28.4208H142.158L146.029 40.8419L150.624 28.4208ZM168.661 42.5682L174.403 45.6419C173.425 46.9612 172.198 48.0208 170.724 48.8208C169.249 49.6208 167.64 50.0208 165.895 50.0208C163.939 50.0208 162.152 49.5226 160.535 48.5261C158.933 47.5296 157.649 46.1963 156.686 44.5261C155.735 42.8419 155.261 40.9822 155.261 38.9472C155.261 37.4033 155.537 35.9647 156.09 34.6314C156.643 33.284 157.401 32.1051 158.366 31.0945C159.344 30.07 160.478 29.27 161.769 28.6945C163.059 28.1191 164.434 27.8314 165.895 27.8314C167.64 27.8314 169.249 28.2314 170.724 29.0314C172.198 29.8314 173.425 30.9051 174.403 32.2524L168.661 35.3261C168.278 34.9472 167.845 34.6595 167.363 34.463C166.895 34.2524 166.406 34.1472 165.895 34.1472C165.087 34.1472 164.364 34.3717 163.726 34.8208C163.088 35.27 162.577 35.8595 162.195 36.5893C161.825 37.3191 161.641 38.1051 161.641 38.9472C161.641 39.7753 161.825 40.5542 162.195 41.284C162.577 41.9998 163.088 42.5822 163.726 43.0314C164.364 43.4805 165.087 43.7051 165.895 43.7051C166.406 43.7051 166.895 43.6068 167.363 43.4103C167.845 43.1998 168.278 42.9191 168.661 42.5682ZM190.069 28.4208H196.45V49.4735H190.047L189.75 47.5787C189.225 48.3085 188.558 48.898 187.75 49.3472C186.956 49.7963 186.027 50.0208 184.964 50.0208C183.376 50.0208 181.887 49.7261 180.497 49.1366C179.122 48.5472 177.91 47.7332 176.86 46.6945C175.81 45.6419 174.988 44.4348 174.393 43.0735C173.811 41.698 173.521 40.2243 173.521 38.6524C173.521 37.1506 173.797 35.7472 174.35 34.4419C174.903 33.1366 175.676 31.9927 176.669 31.0103C177.676 30.0138 178.831 29.2348 180.136 28.6735C181.454 28.1121 182.866 27.8314 184.368 27.8314C185.588 27.8314 186.694 28.084 187.686 28.5893C188.694 29.0805 189.587 29.698 190.366 30.4419L190.069 28.4208ZM184.794 43.9577C185.673 43.9577 186.474 43.7332 187.197 43.284C187.92 42.8348 188.495 42.2314 188.92 41.4735C189.345 40.7156 189.558 39.8735 189.558 38.9472C189.558 38.0208 189.345 37.1787 188.92 36.4208C188.495 35.663 187.92 35.0595 187.197 34.6103C186.474 34.1612 185.673 33.9366 184.794 33.9366C183.914 33.9366 183.113 34.1612 182.39 34.6103C181.681 35.0595 181.114 35.663 180.689 36.4208C180.277 37.1787 180.072 38.0208 180.072 38.9472C180.072 39.8735 180.285 40.7156 180.71 41.4735C181.135 42.2314 181.702 42.8348 182.411 43.284C183.135 43.7332 183.929 43.9577 184.794 43.9577Z" fill="#1F1F1F"/>
<path d="M26.6435 16.8169L40.3634 7.1712L45.0741 13.9255L30.7577 23.9898L32.7887 33.0518L39.4737 20.3715H47.3254V49.4737H39.1521V32.0932L34.4737 42.1981H31.3143L26.6435 32.8365V49.4737H18.4311V32.6567L4.71072 42.3025L0 35.5482L15.3778 24.7368L0 13.9255L4.7103 7.1712L18.4311 16.8169V0H26.6435V16.8169Z" fill="#1F1F1F"/>
</svg>
