<svg width="134" height="40" viewBox="0 0 134 40" fill="none" xmlns="http://www.w3.org/2000/svg">
<path d="M38.9947 33.3472C37.6902 33.3472 36.4991 33.0151 35.4214 32.3507C34.3532 31.6864 33.4977 30.7975 32.8548 29.6841C32.2215 28.5613 31.9048 27.3215 31.9048 25.9648C31.9048 24.9355 32.0891 23.9765 32.4578 23.0876C32.8265 22.1893 33.3322 21.4034 33.975 20.7297C34.6273 20.0467 35.3836 19.5133 36.2438 19.1297C37.1041 18.746 38.0211 18.5542 38.9947 18.5542C40.2993 18.5542 41.4856 18.8864 42.5539 19.5507C43.6316 20.2151 44.4871 21.1086 45.1204 22.2314C45.7633 23.3542 46.0847 24.5987 46.0847 25.9648C46.0847 26.9846 45.9003 27.939 45.5317 28.8279C45.163 29.7168 44.6525 30.5028 44.0002 31.1858C43.3574 31.8595 42.6059 32.3881 41.7456 32.7718C40.8948 33.1554 39.9779 33.3472 38.9947 33.3472ZM38.9947 29.1367C39.5336 29.1367 40.0157 28.9917 40.4411 28.7016C40.8759 28.4116 41.2162 28.0279 41.462 27.5507C41.7078 27.0642 41.8307 26.5355 41.8307 25.9648C41.8307 25.3753 41.6983 24.8373 41.4337 24.3507C41.1784 23.8642 40.8334 23.4806 40.3985 23.1999C39.9731 22.9098 39.5052 22.7648 38.9947 22.7648C38.4653 22.7648 37.9832 22.9145 37.5484 23.2139C37.123 23.5039 36.7827 23.8923 36.5274 24.3788C36.2816 24.8653 36.1588 25.394 36.1588 25.9648C36.1588 26.5636 36.2864 27.1016 36.5416 27.5788C36.8063 28.056 37.1513 28.4349 37.5767 28.7157C38.0116 28.9964 38.4843 29.1367 38.9947 29.1367ZM46.5221 32.9823L46.5079 18.9472H50.7618L50.776 19.8314C51.2486 19.4291 51.7875 19.1157 52.3925 18.8911C52.9975 18.6665 53.6356 18.5542 54.3068 18.5542C54.8173 18.5542 55.3372 18.6291 55.8666 18.7788L54.1934 23.0455C53.8625 22.8958 53.5222 22.8209 53.1724 22.8209C52.7281 22.8209 52.3216 22.9285 51.953 23.1437C51.5937 23.3495 51.3054 23.635 51.088 23.9999C50.88 24.3554 50.776 24.7531 50.776 25.1928V32.9823H46.5221ZM60.4152 39.9999H56.1613V18.9472H60.4152V20.2665C60.8596 19.7706 61.3747 19.3683 61.9608 19.0595C62.547 18.7414 63.2229 18.5823 63.9886 18.5823C65.0285 18.5823 65.9974 18.7741 66.8954 19.1578C67.7935 19.5414 68.5829 20.0747 69.2635 20.7578C69.9537 21.4314 70.4876 22.2127 70.8662 23.1016C71.2533 23.9905 71.4475 24.9449 71.4475 25.9648C71.4475 26.9846 71.2533 27.9437 70.8662 28.842C70.4876 29.7402 69.9537 30.5309 69.2635 31.2139C68.5829 31.8876 67.7935 32.4162 66.8954 32.7999C65.9974 33.1835 65.0285 33.3753 63.9886 33.3753C63.2229 33.3753 62.547 33.2162 61.9608 32.8981C61.3747 32.58 60.8596 32.1776 60.4152 31.6911V39.9999ZM63.9318 22.6244C63.3552 22.6244 62.8258 22.7788 62.3437 23.0876C61.871 23.387 61.4929 23.7893 61.2093 24.2946C60.9257 24.7999 60.7839 25.3566 60.7839 25.9648C60.7839 26.5823 60.9257 27.1437 61.2093 27.649C61.4929 28.1542 61.871 28.5566 62.3437 28.856C62.8258 29.1554 63.3552 29.3051 63.9318 29.3051C64.518 29.3051 65.0521 29.1554 65.5342 28.856C66.0163 28.5566 66.3992 28.1542 66.6827 27.649C66.9663 27.1437 67.1081 26.5823 67.1081 25.9648C67.1081 25.3566 66.9663 24.7999 66.6827 24.2946C66.3992 23.7893 66.0163 23.387 65.5342 23.0876C65.0521 22.7788 64.518 22.6244 63.9318 22.6244ZM84.8901 24.0139V32.9823H80.6361V25.1928C80.6361 24.7531 80.5276 24.3554 80.31 23.9999C80.0923 23.635 79.8045 23.3495 79.445 23.1437C79.0855 22.9285 78.6843 22.8209 78.2397 22.8209C77.7952 22.8209 77.3889 22.9285 77.0202 23.1437C76.6608 23.3495 76.3729 23.635 76.1553 23.9999C75.9475 24.3554 75.8433 24.7531 75.8433 25.1928V32.9823H71.5893L71.5752 11.9297H75.8291L75.8433 19.8314C76.3162 19.4291 76.8551 19.1157 77.4598 18.8911C78.0646 18.6665 78.7027 18.5542 79.3741 18.5542C80.3951 18.5542 81.3217 18.8022 82.1534 19.2981C82.985 19.7846 83.6472 20.4397 84.1386 21.263C84.6398 22.0864 84.8901 23.0034 84.8901 24.0139ZM86.0202 32.9823V11.9297H90.2742V32.9823H86.0202ZM100.416 18.9472H104.953L97.1826 39.9999H92.6734L95.2258 32.9823L90.1211 18.9472H94.7721L97.3528 27.2279L100.416 18.9472ZM112.44 28.3788L116.269 30.4279C115.616 31.3074 114.798 32.0139 113.816 32.5472C112.832 33.0806 111.76 33.3472 110.597 33.3472C109.292 33.3472 108.101 33.0151 107.023 32.3507C105.955 31.6864 105.099 30.7975 104.457 29.6841C103.823 28.5613 103.507 27.3215 103.507 25.9648C103.507 24.9355 103.691 23.9765 104.06 23.0876C104.429 22.1893 104.934 21.4034 105.577 20.7297C106.229 20.0467 106.985 19.5133 107.846 19.1297C108.706 18.746 109.623 18.5542 110.597 18.5542C111.76 18.5542 112.832 18.8209 113.816 19.3542C114.798 19.8876 115.616 20.6034 116.269 21.5016L112.44 23.5507C112.185 23.2981 111.896 23.1063 111.575 22.9753C111.263 22.835 110.937 22.7648 110.597 22.7648C110.058 22.7648 109.576 22.9145 109.15 23.2139C108.725 23.5133 108.385 23.9063 108.13 24.3928C107.883 24.8794 107.761 25.4034 107.761 25.9648C107.761 26.5168 107.883 27.0361 108.13 27.5227C108.385 27.9999 108.725 28.3881 109.15 28.6876C109.576 28.987 110.058 29.1367 110.597 29.1367C110.937 29.1367 111.263 29.0712 111.575 28.9402C111.896 28.7999 112.185 28.6127 112.44 28.3788ZM126.712 18.9472H130.966V32.9823H126.698L126.5 31.7192C126.15 32.2057 125.705 32.5987 125.167 32.8981C124.637 33.1975 124.018 33.3472 123.309 33.3472C122.251 33.3472 121.258 33.1507 120.331 32.7578C119.415 32.3648 118.606 31.8221 117.907 31.1297C117.207 30.4279 116.659 29.6232 116.262 28.7157C115.874 27.7987 115.68 26.8162 115.68 25.7683C115.68 24.7671 115.865 23.8314 116.233 22.9613C116.602 22.0911 117.117 21.3285 117.779 20.6735C118.45 20.0092 119.22 19.4899 120.09 19.1157C120.969 18.7414 121.91 18.5542 122.912 18.5542C123.725 18.5542 124.463 18.7227 125.124 19.0595C125.796 19.387 126.391 19.7987 126.911 20.2946L126.712 18.9472ZM123.196 29.3051C123.782 29.3051 124.316 29.1554 124.798 28.856C125.28 28.5566 125.663 28.1542 125.947 27.649C126.23 27.1437 126.372 26.5823 126.372 25.9648C126.372 25.3472 126.23 24.7858 125.947 24.2806C125.663 23.7753 125.28 23.373 124.798 23.0735C124.316 22.7741 123.782 22.6244 123.196 22.6244C122.609 22.6244 122.075 22.7741 121.593 23.0735C121.12 23.373 120.743 23.7753 120.459 24.2806C120.185 24.7858 120.048 25.3472 120.048 25.9648C120.048 26.5823 120.19 27.1437 120.473 27.649C120.757 28.1542 121.135 28.5566 121.607 28.856C122.09 29.1554 122.619 29.3051 123.196 29.3051Z" fill="white"/>
<path d="M17.7623 11.2113L26.9089 4.7808L30.0494 9.28365L20.5051 15.9932L21.8592 22.0345L26.3158 13.581H31.5503V32.9825H26.1014V21.3954L22.9825 28.1321H20.8762L17.7623 21.891V32.9825H12.2874V21.7712L3.14048 28.2017L0 23.6988L10.2519 16.4912L0 9.28365L3.1402 4.7808L12.2874 11.2113V0H17.7623V11.2113Z" fill="white"/>
</svg>
